<svg width="183" height="39" viewBox="0 0 183 39" fill="none" xmlns="http://www.w3.org/2000/svg">
<path d="M18.3296 38.48C23.8496 38.48 28.5536 36.512 31.6736 32.864L27.6416 29.024C25.1936 31.712 22.1696 33.008 18.6656 33.008C11.7056 33.008 6.66563 28.112 6.66563 21.2C6.66563 14.288 11.7056 9.392 18.6656 9.392C22.1696 9.392 25.1936 10.688 27.6416 13.328L31.6736 9.536C28.5536 5.888 23.8496 3.92 18.3776 3.92C8.05763 3.92 0.377625 11.168 0.377625 21.2C0.377625 31.232 8.05763 38.48 18.3296 38.48ZM40.1006 8.144C42.3566 8.144 43.9406 6.512 43.9406 4.4C43.9406 2.432 42.3086 0.943999 40.1006 0.943999C37.8926 0.943999 36.2606 2.528 36.2606 4.544C36.2606 6.56 37.8926 8.144 40.1006 8.144ZM37.0766 38H43.0766V12.368H37.0766V38ZM65.4956 12.08C61.7516 12.08 58.6316 13.328 56.6636 15.68V12.368H50.9516V38H56.9516V25.04C56.9516 19.904 59.8316 17.312 64.1036 17.312C67.9436 17.312 70.1996 19.52 70.1996 24.08V38H76.1996V23.312C76.1996 15.584 71.6396 12.08 65.4956 12.08ZM108.141 25.328C108.141 17.312 102.669 12.08 95.1814 12.08C87.5494 12.08 81.9334 17.552 81.9334 25.184C81.9334 32.816 87.5014 38.336 96.0934 38.336C100.509 38.336 104.109 36.896 106.413 34.16L103.197 30.464C101.373 32.336 99.1174 33.248 96.2374 33.248C91.7734 33.248 88.6534 30.848 87.9334 27.104H108.045C108.093 26.528 108.141 25.808 108.141 25.328ZM95.1814 16.88C99.1174 16.88 101.949 19.424 102.429 23.12H87.8854C88.4614 19.376 91.2934 16.88 95.1814 16.88ZM127.633 32.336C126.721 33.056 125.521 33.392 124.273 33.392C121.969 33.392 120.721 32.048 120.721 29.552V17.36H127.585V12.56H120.721V6.704H114.721V12.56H110.497V17.36H114.721V29.696C114.721 35.36 117.937 38.336 123.553 38.336C125.713 38.336 127.873 37.76 129.313 36.608L127.633 32.336ZM137.273 8.144C139.529 8.144 141.113 6.512 141.113 4.4C141.113 2.432 139.481 0.943999 137.273 0.943999C135.065 0.943999 133.433 2.528 133.433 4.544C133.433 6.56 135.065 8.144 137.273 8.144ZM134.249 38H140.249V12.368H134.249V38ZM159.884 38.336C164.876 38.336 168.859 36.176 170.828 32.336L166.22 29.648C164.684 32.096 162.38 33.2 159.836 33.2C155.42 33.2 152.06 30.176 152.06 25.184C152.06 20.24 155.42 17.168 159.836 17.168C162.38 17.168 164.684 18.272 166.22 20.72L170.828 18.032C168.859 14.144 164.876 12.08 159.884 12.08C151.772 12.08 146.012 17.504 146.012 25.184C146.012 32.864 151.772 38.336 159.884 38.336ZM178.872 38.336C181.032 38.336 182.808 36.656 182.808 34.352C182.808 31.952 181.032 30.368 178.872 30.368C176.712 30.368 174.936 31.952 174.936 34.352C174.936 36.656 176.712 38.336 178.872 38.336Z" fill="#E50914"/>
</svg>
